<?xml version="1.0" encoding="UTF-8"?>
<!DOCTYPE svg PUBLIC "-//W3C//DTD SVG 1.1//EN" "http://www.w3.org/Graphics/SVG/1.1/DTD/svg11.dtd">
<!-- Creator: CorelDRAW 2018 (64-Bit Evaluation Version) -->
<svg xmlns="http://www.w3.org/2000/svg" xml:space="preserve" width="4.23333in" height="4.23333in" version="1.1" style="shape-rendering:geometricPrecision; text-rendering:geometricPrecision; image-rendering:optimizeQuality; fill-rule:evenodd; clip-rule:evenodd"
viewBox="0 0 4233.33 4233.33"
 xmlns:xlink="http://www.w3.org/1999/xlink">
 <defs>
  <style type="text/css">
   <![CDATA[
    .str0 {stroke:#373435;stroke-width:33.33;stroke-miterlimit:2.61313}
    .fil0 {fill:none}
   ]]>
  </style>
 </defs>
 <g id="Layer_x0020_1">
  <metadata id="CorelCorpID_0Corel-Layer"/>
  <g id="_2766615614480">
   <path class="fil0 str0" d="M823.16 1292.5c-181.39,-2.97 -428.24,117.8 -551.2,249.11 -167.74,179.13 -178.56,343.1 -185.05,578.01 -9.99,361.31 -39.85,393.25 314.98,681.74 256.74,-51.35 588.43,156.76 806.37,-291.66 261.32,-537.67 151.8,-237.33 49.21,-883.45 -33.66,-212.01 -29.34,-171.97 -244.41,-311.19 -15.5,-10.04 -314.1,-69.34 -364.8,-33.17"/>
   <path class="fil0 str0" d="M717.16 1435.61c51.67,146.88 143.41,963.25 -49.52,1059.11 -112.53,55.91 -236.6,140.92 -311.8,-17.56 -61.56,-129.77 -33.54,-263.75 113.57,-295.59 218.5,-47.3 142.61,0.12 366.16,129.02 75.84,43.73 602.39,377.89 602.39,227.45"/>
   <path class="fil0 str0" d="M1559.87 2108.72c-299.69,0 -356.6,218.4 -139.17,374.49 138.48,99.41 115.67,-44.86 156.88,-164.3 6.43,-18.61 -17.42,-434.93 3.03,35.74 1.02,23.56 35.61,240.03 42.85,268.19"/>
   <path class="fil0 str0" d="M1576.46 2209.6c103.33,-64.33 91.63,38.97 119.85,184.87 3.11,16.11 22.56,237.53 22.56,260.16"/>
   <path class="fil0 str0" d="M1665.39 2225.49c106.19,-163.95 260.19,-80.51 260.19,101.13 0,105.9 21.2,198.68 21.2,312.1 53.62,-186.91 -54.74,-536.02 196.1,-545.91 8.11,-0.32 43.38,22.67 58.3,26.5"/>
   <path class="fil0 str0" d="M2376.08 2596.32c-72.65,60.2 -232.49,-26.47 -274.39,-116.75 -76.88,-165.66 57.37,-269.92 163.09,-354.95 360.65,52.35 -126.14,356.7 -196.1,254.4"/>
   <path class="fil0 str0" d="M2460.89 2167.02c48.66,70.47 29.48,365.71 132.5,365.71 167.74,0 48.57,-171.46 104.64,-307.41 3.38,-8.19 -9.24,-152.63 -9.24,137.8 0,224.94 255.52,222.74 170.96,-199.13 -2.65,-13.23 -1.36,-6.2 -1.36,-18.17"/>
   <path class="fil0 str0" d="M3049.19 2135.22c-381.89,-119.07 -60.03,497.08 76.02,227.91 36.46,-72.14 -182.32,-435.16 -48.31,-152.04 47.99,101.39 48.9,236.91 72.99,321.64"/>
   <path class="fil0 str0" d="M3240 2135.22c-12.5,156.28 174.54,320.35 -76.93,462.02 -8.91,5.02 -39.24,15.48 -44.97,4.39"/>
   <path class="fil0 str0" d="M3240 2135.22c115.7,128.38 132.5,107 132.5,312.7 21.46,0 98.46,11.06 101.16,-14.99 109.58,-25.95 84.35,-125.78 84.35,-234.11 0,27.69 5.3,263.15 5.3,259.7"/>
   <path class="fil0 str0" d="M1125.27 1573.41c-139.57,168.95 -462.91,301.05 -89.65,543.79 64.82,42.15 232.75,64.02 232.75,139.92 0,144.19 58.9,109.28 -27.41,267.13 -76.09,139.15 -118.5,264.05 -331.63,268.63 -103.94,2.24 -142.56,-129.25 3.94,-231.84 150.13,-105.13 137.19,-131.63 374.19,-129.02 37.13,0.41 416.61,-59.54 420.37,-90.1 7.65,-62.17 149.23,-318 -83.44,-318 -106.48,0 -109.04,70.5 -184.59,195.65 -177.47,293.95 302.62,222.05 310.44,-13.63 8.91,-268.76 30.39,221.39 35.73,260.46 45.14,330.23 0.56,-14.05 27.41,-112.51 6.85,-25.14 317.57,-380.82 390.54,-71.93 104.22,441.19 36.52,302.7 55.12,107.67 27.41,-287.53 240.99,-341.37 471.71,-214.58 110.13,60.52 10.78,294.48 49.52,378.43 6.22,0 4.43,-3.91 3.94,-10.15"/>
   <path class="fil0 str0" d="M2863.69 1266c0,455.83 26.47,554.1 99.19,1060.47 33.06,230.17 53.86,419.06 86.31,640.85"/>
   <path class="fil0 str0" d="M85.12 2177.04c59.65,1 285.35,26.93 304.34,-16.99 2.54,-5.88 1455.81,37.02 1600.47,33.01 25.49,-0.71 255.25,5.94 265.15,-3.48 -13.3,-72.04 568.72,35.91 571.05,-57.54 0.58,-23.53 1204.43,16.74 1277.77,-12.72"/>
   <path class="fil0 str0" d="M176.56 2426.72c263.13,0 312.5,-31.9 624.65,4.85 75.99,8.94 557.16,17.94 568.31,-30.44 91.97,-23.66 1035.03,69.08 1096.21,-26.05 47.77,-5.12 744.77,3.78 747.76,-38.92 1.68,-23.95 681.15,-32.55 742.01,-31.35 64.06,1.26 131.58,0 196.1,0"/>
  </g>
 </g>
</svg>
